<?xml version="1.0" encoding="utf-8"?>
<!-- Generator: Adobe Illustrator 20.1.0, SVG Export Plug-In . SVG Version: 6.00 Build 0)  -->
<svg version="1.1" id="Layer_1" xmlns="http://www.w3.org/2000/svg" xmlns:xlink="http://www.w3.org/1999/xlink" x="0px" y="0px"
	 viewBox="0 0 343.2 400" fill="#fff" xml:space="preserve">
<style type="text/css">
	.st0{fill-rule:evenodd;clip-rule:evenodd;fill:#fff;}
</style>
<path class="st0" d="M331.5,134c-20.6-25.7-49.5-40.5-76.7-40.5c-36.1,0-51.3,17.1-76.3,17.1c-25.8,0-45.4-17.1-76.6-17.1
	c-30.6,0-63.2,18.6-83.9,50.4C-11,188.6-6.1,272.8,41,344.5c16.9,25.6,39.4,54.5,68.8,54.7c26.2,0.2,33.6-16.7,69.1-16.9
	c35.5-0.2,42.2,17.1,68.4,16.8c29.4-0.3,53.2-32.2,70-57.9c12.1-18.4,16.6-27.6,25.9-48.4C275.1,267.2,264.1,170.9,331.5,134z
	 M227.5,64.8C240.6,48,250.5,24.3,246.9,0c-21.4,1.5-46.4,15.1-61.1,32.8c-13.3,16.1-24.2,40-20,63.2
	C189.3,96.8,213.4,82.8,227.5,64.8z"/>
</svg>
