<?xml version="1.0" encoding="iso-8859-1"?>
<!-- Generator: Adobe Illustrator 19.0.0, SVG Export Plug-In . SVG Version: 6.00 Build 0)  -->
<svg version="1.1" id="Capa_1" xmlns="http://www.w3.org/2000/svg" xmlns:xlink="http://www.w3.org/1999/xlink" x="0px" y="0px"
	 viewBox="0 0 486.6 486.6" style="enable-background:new 0 0 486.6 486.6;" xml:space="preserve">
<g>
	<g>
		<path d="M197.5,291.474c54.3,8.8,144.1,31.8,206.8,91.2c0.7,11.1,10.4,19.7,21.9,18.3c10.1-1.2,17.3-10.4,17.3-20.6v-115
			c25.2-9.4,43.1-33.6,43.1-62.1s-18-52.7-43.1-62.1v-114c0-10.1-7.2-19.4-17.3-20.6c-11.5-1.4-21.3,7.3-21.9,18.3
			c-62.6,59.4-152.4,82.4-206.8,91.2v-18.6H73.3c-24.7,0-44.7,20-44.7,44.7v19.9H15c-8.3,0-15,6.7-15,15v56c0,8.3,6.7,15,15,15h13.6
			v17.3c0,24.7,20,44.7,44.7,44.7h11.1l51.1,170.1l7.7-1.8l25.8-6.2l7.7-1.8l-20.7-160.3h41.4v-18.6H197.5z M150.2,262.774H75.8
			v-117.9h74.3v117.9H150.2z"/>
	</g>
</g>
<g>
</g>
<g>
</g>
<g>
</g>
<g>
</g>
<g>
</g>
<g>
</g>
<g>
</g>
<g>
</g>
<g>
</g>
<g>
</g>
<g>
</g>
<g>
</g>
<g>
</g>
<g>
</g>
<g>
</g>
</svg>
