<?xml version="1.0" encoding="utf-8"?>
<!-- Generator: Adobe Illustrator 20.1.0, SVG Export Plug-In . SVG Version: 6.00 Build 0)  -->
<svg version="1.1" id="Capa_1" xmlns="http://www.w3.org/2000/svg" xmlns:xlink="http://www.w3.org/1999/xlink" x="0px" y="0px"
	 viewBox="0 0 444.1 392.8" fill="#0180bd" xml:space="preserve">
<g>
	<path d="M394.4,262.3h-16.6v-16.5c0-4.1-3.4-7.5-7.5-7.5h-201c-4.1,0-7.5,3.4-7.5,7.5v65.5c0,44.9,36.6,81.5,81.5,81.5h53
		c24.8,0,47.1-11.2,62.1-28.8l37.8-18.7c19.2-9.5,31.1-28.7,31.1-50.1C427.3,277.1,412.5,262.3,394.4,262.3z M362.8,295.6h-186v-7
		h186V295.6z M362.8,253.3v20.3h-186v-20.3H362.8z M296.3,377.8h-53c-36.7,0-66.5-29.8-66.5-66.5v-0.7h186v0.7
		C362.8,348,333,377.8,296.3,377.8z M389.5,331.9l-17.1,8.5c3.5-9,5.4-18.8,5.4-29v-34h16.6c9.9,0,17.9,8,17.9,17.9
		C412.3,310.9,403.6,325,389.5,331.9z"/>
	<path d="M156.6,346.6H31.8V21.1h225.3V217c0,4.1,3.4,7.5,7.5,7.5s7.5-3.4,7.5-7.5V13.6c0-4.1-3.4-7.5-7.5-7.5H24.3
		c-4.1,0-7.5,3.4-7.5,7.5v340.5c0,4.1,3.4,7.5,7.5,7.5h132.3c4.1,0,7.5-3.4,7.5-7.5S160.8,346.6,156.6,346.6z"/>
	<path d="M135.3,48.7c0-4.1-3.4-7.5-7.5-7.5H59.3c-4.1,0-7.5,3.4-7.5,7.5v57c0,4.1,3.4,7.5,7.5,7.5h68.4c4.1,0,7.5-3.4,7.5-7.5v-57
		H135.3z M120.3,98.2H66.8v-42h53.4L120.3,98.2L120.3,98.2z"/>
	<path d="M127.8,129.4H59.3c-4.1,0-7.5,3.4-7.5,7.5s3.4,7.5,7.5,7.5h68.4c4.1,0,7.5-3.4,7.5-7.5S131.9,129.4,127.8,129.4z"/>
	<path d="M127.8,158.9H59.3c-4.1,0-7.5,3.4-7.5,7.5s3.4,7.5,7.5,7.5h68.4c4.1,0,7.5-3.4,7.5-7.5S131.9,158.9,127.8,158.9z"/>
	<path d="M127.8,188.4H59.3c-4.1,0-7.5,3.4-7.5,7.5s3.4,7.5,7.5,7.5h68.4c4.1,0,7.5-3.4,7.5-7.5S131.9,188.4,127.8,188.4z"/>
	<path d="M127.8,217.9H59.3c-4.1,0-7.5,3.4-7.5,7.5s3.4,7.5,7.5,7.5h68.4c4.1,0,7.5-3.4,7.5-7.5S131.9,217.9,127.8,217.9z"/>
	<path d="M127.8,247.5H59.3c-4.1,0-7.5,3.4-7.5,7.5s3.4,7.5,7.5,7.5h68.4c4.1,0,7.5-3.4,7.5-7.5S131.9,247.5,127.8,247.5z"/>
	<path d="M127.8,277H59.3c-4.1,0-7.5,3.4-7.5,7.5s3.4,7.5,7.5,7.5h68.4c4.1,0,7.5-3.4,7.5-7.5S131.9,277,127.8,277z"/>
	<path d="M127.8,306.5H59.3c-4.1,0-7.5,3.4-7.5,7.5s3.4,7.5,7.5,7.5h68.4c4.1,0,7.5-3.4,7.5-7.5S131.9,306.5,127.8,306.5z"/>
	<path d="M229.6,41.2h-68.4c-4.1,0-7.5,3.4-7.5,7.5s3.4,7.5,7.5,7.5h68.4c4.1,0,7.5-3.4,7.5-7.5S233.7,41.2,229.6,41.2z"/>
	<path d="M229.6,70.7h-68.4c-4.1,0-7.5,3.4-7.5,7.5c0,4.1,3.4,7.5,7.5,7.5h68.4c4.1,0,7.5-3.4,7.5-7.5
		C237.1,74.1,233.7,70.7,229.6,70.7z"/>
	<path d="M229.6,100.2h-68.4c-4.1,0-7.5,3.4-7.5,7.5s3.4,7.5,7.5,7.5h68.4c4.1,0,7.5-3.4,7.5-7.5S233.7,100.2,229.6,100.2z"/>
	<path d="M229.6,129.8h-68.4c-4.1,0-7.5,3.4-7.5,7.5s3.4,7.5,7.5,7.5h68.4c4.1,0,7.5-3.4,7.5-7.5S233.7,129.8,229.6,129.8z"/>
	<path d="M229.6,160.9h-68.4c-4.1,0-7.5,3.4-7.5,7.5V217c0,4.1,3.4,7.5,7.5,7.5h68.4c4.1,0,7.5-3.4,7.5-7.5v-48.6
		C237.1,164.2,233.7,160.9,229.6,160.9z M222.1,209.5h-53.4v-33.6h53.4V209.5z"/>
</g>
</svg>
