<?xml version="1.0" encoding="utf-8"?>
<!-- Generator: Adobe Illustrator 20.1.0, SVG Export Plug-In . SVG Version: 6.00 Build 0)  -->
<svg version="1.1" id="Capa_1" xmlns="http://www.w3.org/2000/svg" xmlns:xlink="http://www.w3.org/1999/xlink" x="0px" y="0px"
	 viewBox="0 0 30.1 30.1" fill="#0180bd" xml:space="preserve">
<style type="text/css">
	.st0{fill:#0180bd;}
</style>
<g>
	<path d="M15,0C6.7,0,0,6.7,0,15c0,8.3,6.7,15,15,15c8.3,0,15-6.7,15-15C30.1,6.7,23.3,0,15,0z M15,27.5C8.1,27.5,2.5,21.9,2.5,15
		C2.5,8.1,8.1,2.5,15,2.5c6.9,0,12.5,5.6,12.5,12.5C27.5,21.9,21.9,27.5,15,27.5z"/>
</g>
<g>
	<circle class="st0" cx="15" cy="15" r="1"/>
	<path class="st0" d="M15,10c-5,0-8,5-8,5s3,5,8,5s8-5,8-5S20,10,15,10z M15,18c-1.7,0-3-1.3-3-3s1.3-3,3-3c1.7,0,3,1.3,3,3
		S16.7,18,15,18z"/>
</g>
</svg>
